<svg xmlns="http://www.w3.org/2000/svg" xmlns:osb="http://www.openswatchbook.org/uri/2009/osb" xmlns:xlink="http://www.w3.org/1999/xlink" viewBox="0 0 90.26 100"><defs/><defs><linearGradient id="a" osb:paint="solid"><stop offset="0" stop-color="#3673ec"/></linearGradient><linearGradient id="b" gradientTransform="translate(-35 -8838.64)"><stop offset="0" stop-color="#3571ec"/></linearGradient><linearGradient id="c" x1="233.26" x2="486.19" y1="135.45" y2="135.45" gradientUnits="userSpaceOnUse" xlink:href="#a"/><linearGradient id="d" osb:paint="solid"><stop offset="0" stop-color="#63bff0"/></linearGradient></defs><g fill="url(#b)" stroke-width="2.22" transform="translate(-1014.03 -275.39) scale(.45018)"><g fill="url(#c)" stroke-width="5.17" transform="matrix(.42969 0 0 .42969 2244.08 611.86)"><path d="M358.7-.05A135.53 135.53 0 00234.35 65a7.5 7.5 0 1012.82 7.79 120.57 120.57 0 01110.62-57.88c66.46 4.06 117.23 61.43 113.18 127.89-4.06 66.46-61.43 117.23-127.9 113.18a120.42 120.42 0 01-62.69-22.15 7.5 7.5 0 10-8.71 12.2 135.4 135.4 0 0070.5 24.92c74.71 4.56 139.2-52.52 143.77-127.24C490.5 69.01 433.42 4.51 358.7-.05z"/><path d="M446.58 132.91h-73.9a23.57 23.57 0 00-22.3-16.03c-3.75 0-7.3.89-10.46 2.46L299.57 79a7.5 7.5 0 10-10.6 10.6l40.34 40.35a23.56 23.56 0 0021.07 34 23.57 23.57 0 0022.3-16.04h73.9a7.5 7.5 0 000-15zm-96.2 16.03a8.54 8.54 0 010-17.06 8.54 8.54 0 010 17.06zM350.38 32.06a7.5 7.5 0 00-7.5 7.5V55.6a7.5 7.5 0 0015 0V39.56a7.5 7.5 0 00-7.5-7.5zM350.38 208.42a7.5 7.5 0 00-7.5 7.5v16.03a7.5 7.5 0 0015 0v-16.03a7.5 7.5 0 00-7.5-7.5z"/></g><g fill="url(#d)" stroke-width="6.02" transform="matrix(.36914 0 0 .36914 2222.92 644.86)"><path d="M207.9 376.76h-32.06a7.5 7.5 0 000 15h32.06a7.5 7.5 0 100-15z"/><path d="M396.25 284.96l-46.87-18.08-23.95-23.95a7.48 7.48 0 00-5.82-2.18v-20.42a87.26 87.26 0 0022.51-44.34c.04-.15.3-.4.47-.47 2.09.14 4.2 0 6.3-.43 10.9-2.23 18.82-12.37 18.82-24.1v-6.25c0-7-2.93-13.42-7.67-17.89 7.71-41.14 1.61-74.63-17.72-96.95C323.74 8.45 293.75-1.8 255.6.26c-35.82 1.94-58.7 18.62-65.5 24.29-9.54 1.19-37.79 8.04-37.79 47.33a212.3 212.3 0 006.17 50.56c-8.45 3.7-14.18 12.4-14.18 22.4v6.15c0 11.73 7.92 21.87 18.82 24.1 2.09.43 4.2.57 6.3.43.17.07.42.32.46.47a87.28 87.28 0 0022.52 44.33v20.43a7.48 7.48 0 00-5.82 2.18l-23.95 23.95-46.87 18.08a55.58 55.58 0 00-35.54 54.1l6.63 165.74a7.5 7.5 0 0015-.6l-6.65-165.75c-.19-4.86.49-9.6 1.92-14.05l27.27 27.28a40.33 40.33 0 0111.9 28.7V504.5a7.5 7.5 0 0015 0V380.38a55.23 55.23 0 00-16.29-39.31l-30.33-30.34a40.53 40.53 0 0116.49-11.78l44.1-17 33.58 50.37a23.44 23.44 0 0019.6 10.48c4.75 0 9.35-1.44 13.23-4.1l-7.2 165.47a7.5 7.5 0 1014.99.66l6.65-152.9h19.8l6.66 152.9a7.5 7.5 0 1014.98-.66l-7.2-165.46a23.4 23.4 0 0015.57 3.97 23.45 23.45 0 0017.26-10.36l33.58-50.38 44.1 17.01a40.54 40.54 0 0116.5 11.79L377 341.07a55.23 55.23 0 00-16.28 39.31V504.5a7.5 7.5 0 0015 0V380.38a40.33 40.33 0 0111.89-28.7l27.27-27.28c1.44 4.45 2.11 9.2 1.92 14.05l-6.64 165.75a7.5 7.5 0 1015 .6l6.63-165.75a55.6 55.6 0 00-35.55-54.1zM184.62 173.28c-1.4-7.7-8.53-13.3-16.22-12.73-.74.06-1.51 0-2.28-.15-3.9-.8-6.83-4.84-6.83-9.41v-6.15c0-4.56 2.98-8.51 6.93-9.2a8.5 8.5 0 018.36 3.2 10.95 10.95 0 005.53 3.87c3.2.97 6.72.4 9.43-1.51a61.52 61.52 0 0016.53-17.46 7.5 7.5 0 00-12.67-8.03 47.1 47.1 0 01-9.63 11.03 23.45 23.45 0 00-10.1-5.5 196.7 196.7 0 01-6.37-49.36c0-31.3 23.3-32.54 25.9-32.58a7.5 7.5 0 005.2-2.1c.2-.2 21.19-19.97 58-21.96 33.36-1.8 59.15 6.66 74.58 24.48 15.7 18.14 20.83 46.02 14.94 80.87a35.6 35.6 0 00-8.82.6l-8.38-20.13a7.5 7.5 0 00-8.83-4.37c-.8.2-80.58 20.45-114.2-21.4a7.5 7.5 0 10-11.7 9.39c33.97 42.28 102.02 32.34 123.3 27.98l6.57 15.75a13.02 13.02 0 0015.04 7.72c2.76-.65 5.6-.73 6.87-.48 3.95.79 6.93 4.7 6.93 9.09v6.25c0 4.56-2.93 8.6-6.83 9.4-.77.16-1.53.21-2.28.16-7.67-.56-14.81 5.02-16.22 12.73a72.55 72.55 0 01-71.38 59.44c-35.02 0-65.04-25-71.37-59.44zm39.82 152.02a8.5 8.5 0 01-13.13-1.3l-33.84-50.76 14.74-14.74 52.82 46.21zm22.31 11.63l.58-13.31 8.67-8.67 8.66 8.67.58 13.3zm9.25-42.55l-48.61-42.53v-18.88a87.33 87.33 0 0048.6 14.75c17.86 0 34.62-5.4 48.62-14.75v18.88zM300.69 324a8.5 8.5 0 01-13.14 1.3l-20.58-20.59 52.81-46.21 14.74 14.74z"/></g></g></svg>