<svg xmlns="http://www.w3.org/2000/svg" xmlns:osb="http://www.openswatchbook.org/uri/2009/osb" xmlns:xlink="http://www.w3.org/1999/xlink" viewBox="0 0 77.2 100"><defs/><defs><linearGradient id="a" osb:paint="solid"><stop offset="0" stop-color="#63bff0"/></linearGradient><linearGradient id="c" gradientTransform="translate(-25.06 257.4) scale(.27412)" osb:paint="solid"><stop offset="0" stop-color="#3673ec"/></linearGradient><linearGradient id="b" x1="57.6" x2="451.9" y1="256.07" y2="256.07" gradientUnits="userSpaceOnUse" xlink:href="#a"/></defs><g stroke-width="1.4"><g fill="url(#b)" stroke-width="5.11" transform="matrix(.1958 0 0 .1958 -11.28 -.15)"><path d="M286.13 383.59s4.66 1.43 7 1.43c5.58 0 10.97-2.65 14.4-7.46l34.32-48.04 43.26 8.04c2.26.68 4.46 1.47 6.62 2.35a24.77 24.77 0 00-.82 32l8.17 10.13a24.57 24.57 0 0019.3 9.22c5.57 0 10.92-1.88 15.34-5.39a72.63 72.63 0 013.17 21.29v97.1c0 3.45 4.06 7.12 7.5 7.12 3.45 0 7.51-3.67 7.51-7.11v-97.11a86.93 86.93 0 00-14.15-47.73l-.75-1.14a82.9 82.9 0 00-2.19-3.12l-.37-.52-.28-.36a86.25 86.25 0 00-3.75-4.62l-.68-.78c-.45-.52-.92-1.02-1.39-1.52l-1.05-1.12-.8-.82a86.93 86.93 0 00-37.5-22.37c-.24-.07-.49-.13-.74-.17l-67.8-12.6c-.12-.03-.24-.03-.36-.05a16.6 16.6 0 00-9.33 1.19 17.48 17.48 0 01-3.91-10.56v-12.28c4.28-2.73 8.44-5.8 12.46-9.26 16.8-14.47 27.38-35.35 29.67-58.13a23.3 23.3 0 0022.19-23.26v-17.49c0-7.07-3.17-13.61-8.5-17.98v-40.2c24.51-12.09 29.84-26.17 29.84-36.1 0-17.06-15.89-38.4-41.45-55.71C334.68 19.37 300.39.77 254.75.77c-45.65 0-79.93 18.6-96.31 29.69-25.57 17.3-41.45 38.65-41.45 55.7 0 9.94 5.32 24.02 29.84 36.1v40.21a23.18 23.18 0 00-8.5 17.98v17.5a23.3 23.3 0 0022.2 23.25c2.27 22.78 12.85 43.66 29.65 58.13 4.02 3.45 8.18 6.53 12.47 9.26v12.28c0 3.68-1.56 7.66-3.92 10.56a16.6 16.6 0 00-9.68-1.14l-67.8 12.6c-.25.04-.5.1-.75.17a86.93 86.93 0 00-37.47 22.35l-.83.84-1.03 1.1c-.48.52-.95 1.02-1.41 1.54l-.67.78c-.55.63-1.1 1.27-1.63 1.92l-.56.69c-.53.66-1.05 1.33-1.56 2.01-.1.12-.2.23-.28.36l-.37.52a86.95 86.95 0 00-4.45 6.64 86.91 86.91 0 00-12.64 45.35v97.15c0 3.43 4.04 7.07 7.47 7.07 3.43 0 7.48-3.64 7.48-7.07l.05-53.1v-44.05c0-7.31 1.09-14.46 3.17-21.29a24.55 24.55 0 0018.03 5.24 24.58 24.58 0 0016.62-9.07l8.17-10.12a24.57 24.57 0 005.33-18.16 24.56 24.56 0 00-6.15-13.85 73.96 73.96 0 016.62-2.35l43.26-8.04 34.32 48.04a17.66 17.66 0 0014.4 7.46c2.34 0 15.39-5 15.39-5l22.99-9.77 14.6 6.2m-14.6-360.67c41.63 0 72.94 16.98 87.9 27.1 16.78 11.37 34.85 29.76 34.85 43.29 0 6.49-5.2 13.05-14.84 19V91.53c0-10.6-7.17-19.83-17.44-22.46-19.42-4.96-57.61-13.29-95.17-13.3h-.1c-32.52 0-64.83 7.16-86.22 13.17a23.25 23.25 0 00-16.9 22.3v13.93c-9.65-5.95-14.84-12.51-14.84-19 0-13.53 18.07-31.92 34.86-43.28 14.96-10.13 46.26-27.11 87.9-27.11zm88.97 110.1l-.83.86-.58.53c-.26.23-.52.47-.8.7l-.8.67a40.45 40.45 0 01-1.8 1.34l-.54.39-1.4.93-.32.2a74.1 74.1 0 01-11.09 5.62c-.08.03-.16.09-.25.13-16.08 6.62-40.23 11.63-70.56 11.63-30.34 0-54.5-5-70.57-11.63-.09-.04-.17-.1-.26-.13a74.03 74.03 0 01-11.07-5.62l-.32-.2a48.31 48.31 0 01-4.55-3.32l-.8-.71-.57-.53-.84-.85-.39-.4c0-.02-.02-.04-.03-.05 0 0 38.83-10.17 88.38-10.17s90.43 10.17 90.43 10.17m3.82-15.51S298.1 99.72 253.73 99.9c-44.37.18-91.9 10.53-91.9 10.53V91.24a8.2 8.2 0 015.96-7.86c20.48-5.75 51.34-12.6 82.16-12.6h.1c35.91 0 72.71 8.04 91.45 12.83a8.17 8.17 0 016.15 7.92m-185.82 50.7a75.92 75.92 0 0011.72 6.7v14.62a41.62 41.62 0 00-11.72-3.9zm185.82 0v17.42c-3.42.61-7.59 1.77-11.71 3.9v-14.61a75.8 75.8 0 0011.71-6.72zm-159.1 12.42c19.33 6.09 43.08 9.23 66.2 9.23 23.11 0 46.86-3.14 66.18-9.23v17.94a10.33 10.33 0 007.25 9.88l.26.07.68.17.25.05c.6.12 1.21.18 1.82.18H331.43c.24 0 .47-.02.7-.04l.23-.01c.6-.07 1.2-.19 1.78-.35l.23-.08c.22-.06.43-.14.65-.22l.23-.1a10.21 10.21 0 001.6-.84l.22-.15c.19-.12.37-.26.55-.4l.21-.16c.24-.2.47-.4.7-.63.25-.25.5-.48.77-.71l.21-.18.75-.6.07-.04c.28-.2.56-.4.84-.58l.23-.15a20.22 20.22 0 011.76-1l.22-.1a21.72 21.72 0 011.84-.79l.17-.06.87-.3.05-.03.97-.29.03-.01c2.28-.66 4.38-.95 5.8-1.07a8.24 8.24 0 013.05 6.4v17.5a8.29 8.29 0 01-8.28 8.27h-5.97a7.5 7.5 0 00-7.5 7.34c-.46 21.34-9.53 41.16-24.9 54.4-15.93 13.71-34.36 20.8-54.77 21.04-20.41-.25-38.83-7.33-54.77-21.05-15.36-13.23-24.44-33.05-24.9-54.4a7.5 7.5 0 00-7.5-7.33h-5.97a8.29 8.29 0 01-8.28-8.28v-17.49a8.24 8.24 0 013.04-6.4c2.65.23 7.59 1.03 11.78 3.69l.13.07c.59.39 1.16.8 1.71 1.27l.19.16c.27.23.53.47.78.72.22.22.46.43.7.63l.2.16c.19.14.37.28.56.4l.22.15a9.9 9.9 0 001.6.84l.23.1c.22.08.43.16.64.22l.25.08a10.56 10.56 0 001.76.34l.23.02a9 9 0 00.68.04h.26a10.9 10.9 0 001.82-.18l.26-.05.67-.17.26-.08a10.33 10.33 0 007.25-9.87zm29.1 141.83a97.8 97.8 0 0037 7.52h.18a97.87 97.87 0 0037.01-7.52v4.39c0 6.87 2.5 13.77 6.62 19.19l-43.72 32.68-43.72-32.68a32.2 32.2 0 006.63-19.19zm-25.86 28.56c.43-.07.87.03 1.22.29l1.97 1.47s.02 0 .02.03l44.8 33.48-22.3 9.47c-1.2.51-2.57.13-3.32-.93l-30.26-42.34zm125.9 0l7.88 1.46-30.26 42.34a2.74 2.74 0 01-3.32.94l-22.3-9.48 44.8-33.48s.03 0 .03-.03l1.96-1.47c.35-.26.8-.36 1.22-.28zM103.8 347.5l1.64 1.33a9.66 9.66 0 013.57 6.53 9.67 9.67 0 01-2.1 7.14l-8.16 10.13a9.67 9.67 0 01-6.54 3.57 9.67 9.67 0 01-7.15-2.1l-3.12-2.53c.67-1.2 1.37-2.37 2.1-3.52 0 0 .03-.03.03-.05a71.71 71.71 0 014.44-6.2l.5-.6c.71-.89 1.45-1.74 2.2-2.59l.68-.73c.75-.81 1.5-1.62 2.3-2.4l.2-.2a72.48 72.48 0 019.4-7.78zm301.91 0a72.42 72.42 0 019.41 7.79l.2.2a73.17 73.17 0 015.19 5.7l.49.62a72.48 72.48 0 016.57 9.76l-3.12 2.52a9.68 9.68 0 01-7.15 2.1 9.66 9.66 0 01-6.54-3.56l-8.16-10.13a9.74 9.74 0 011.47-13.68zm-286.25 81.93a7.5 7.5 0 00-7.5 7.5v67.38c0 3.43 4.06 7.07 7.49 7.07 3.44 0 7.51-3.63 7.51-7.07v-67.38a7.5 7.5 0 00-7.5-7.5zm270.59 0a7.5 7.5 0 00-7.5 7.5v67.4c0 3.42 4.04 7.04 7.47 7.05 3.44 0 7.53-3.61 7.53-7.05v-67.4a7.5 7.5 0 00-7.5-7.5z"/><path d="M357.16 428.66h-39.51c-6.76 0-12.26 5.5-12.26 12.26v21.05c0 6.75 5.5 12.25 12.26 12.25h39.5c6.77 0 12.26-5.5 12.26-12.26v-21.04c0-6.76-5.5-12.26-12.25-12.26zm-36.76 30.55v-15.55h34v15.56zM191.85 428.66h-39.5c-6.77 0-12.26 5.5-12.26 12.25v21.05c0 6.76 5.5 12.26 12.25 12.26h39.51c6.76 0 12.26-5.5 12.26-12.26v-21.05c0-6.75-5.5-12.25-12.26-12.25zm-2.75 30.55h-34v-15.55h34z"/></g><path fill="url(#c)" d="M44.77 257.6v.01c-12.51 0-21.9 5.1-26.4 8.14-7 4.74-11.36 10.6-11.36 15.27 0 2.73 1.46 6.58 8.18 9.9 1.17 3.06 2.43 3.64 4.11 5.47.88.62 2.1 1.3 3.22 1.84 1.32.62 2.69 1.2 4.1 1.56a71.9 71.9 0 0018.15 2.53 71.9 71.9 0 0018.14-2.53c1.43-.36 2.8-.94 4.12-1.56a22.68 22.68 0 003.21-1.84c2.34-1.9 3.07-2.07 4.12-5.48 6.72-3.31 8.17-7.17 8.17-9.9 0-4.67-4.35-10.52-11.36-15.26a47.73 47.73 0 00-26.4-8.14zm0 4.12c11.41 0 20 4.66 24.1 7.44 4.6 3.11 9.55 8.15 9.55 11.86 0 1.78-1.42 3.58-4.07 5.2v-3.73c0-2.9-1.96-5.44-4.78-6.16-5.32-1.36-15.8-3.64-26.09-3.64h-.02c-8.92 0-17.77 1.96-23.64 3.6a6.37 6.37 0 00-4.63 6.12v3.82c-2.64-1.63-4.07-3.43-4.07-5.2 0-3.72 4.96-8.76 9.56-11.87a43.56 43.56 0 0124.1-7.44zm-1.31 15.08h.02c9.85 0 19.94 2.2 25.07 3.52 1 .25 1.69 1.15 1.69 2.17l.1 5.04s-13.68-2.8-25.85-2.75c-12.16.05-25.19 2.9-25.19 2.9v-5.27c0-1 .67-1.88 1.63-2.15 5.62-1.58 14.08-3.46 22.53-3.46zm1.03 12.2c13.59 0 24.79 2.78 24.79 2.78l-.12.13-.23.23-.16.15-.21.2-.23.17a11.05 11.05 0 01-.49.37c-.04.04-.1.07-.15.1-.12.1-.25.18-.38.26l-.09.06c-.85.54-1.87 1.05-3.04 1.54l-.06.03c-4.41 1.82-11.03 3.19-19.35 3.19-8.31 0-14.94-1.37-19.34-3.19-.03 0-.05-.02-.07-.03-1.16-.49-2.18-1-3.04-1.54l-.09-.06-.38-.26-.15-.1a11.3 11.3 0 01-.5-.37l-.21-.18a8.87 8.87 0 01-.6-.57l-.11-.11-.02-.02S30.91 289 44.5 289z" transform="matrix(.71425 0 0 .71425 6.62 -184)"/><path fill="url(#c)" fill-rule="evenodd" d="M36.79 362.19l3.98-1.6 1.87 2.18h4.26l1.87-2.18 3.98 1.7-2.74 3.17 3.55 30.17s-.03 1.8-1.83 1.94c-1.8.14-2.28-1.62-2.28-1.62l-3.4-29.06H43.5l-3.41 29.09s-.46 1.86-2.3 1.61c-1.85-.25-1.8-2.03-1.8-2.03l3.56-30.1z" transform="matrix(.71425 0 0 .71425 6.62 -184)"/></g></svg>